<?xml version="1.0" encoding="UTF-8" standalone="no"?>
<svg
   xmlns:dc="http://purl.org/dc/elements/1.1/"
   xmlns:cc="http://creativecommons.org/ns#"
   xmlns:rdf="http://www.w3.org/1999/02/22-rdf-syntax-ns#"
   xmlns:svg="http://www.w3.org/2000/svg"
   xmlns="http://www.w3.org/2000/svg"
   xmlns:sodipodi="http://sodipodi.sourceforge.net/DTD/sodipodi-0.dtd"
   xmlns:inkscape="http://www.inkscape.org/namespaces/inkscape"
   width="512"
   height="512"
   viewBox="0 0 512 512"
   version="1.1"
   id="svg2"
   sodipodi:docname="ae-yellow.svg"
   inkscape:version="0.92.4 (5da689c313, 2019-01-14)">
  <metadata
     id="metadata8">
    <rdf:RDF>
      <cc:Work
         rdf:about="">
        <dc:format>image/svg+xml</dc:format>
        <dc:type
           rdf:resource="http://purl.org/dc/dcmitype/StillImage" />
        <dc:title />
      </cc:Work>
    </rdf:RDF>
  </metadata>
  <defs
     id="defs6" />
  <sodipodi:namedview
     pagecolor="#ffffff"
     bordercolor="#666666"
     borderopacity="1"
     objecttolerance="10"
     gridtolerance="10"
     guidetolerance="10"
     inkscape:pageopacity="0"
     inkscape:pageshadow="2"
     inkscape:window-width="1600"
     inkscape:window-height="837"
     id="namedview4"
     showgrid="false"
     inkscape:showpageshadow="false"
     inkscape:zoom="1.3046875"
     inkscape:cx="98.299953"
     inkscape:cy="317.31737"
     inkscape:window-x="-8"
     inkscape:window-y="-8"
     inkscape:window-maximized="1"
     inkscape:current-layer="svg2"
     showguides="true"
     inkscape:guide-bbox="true"
     guidecolor="#ff00ff"
     guideopacity="0.49803922"
     inkscape:snap-bbox="true"
     inkscape:bbox-nodes="true">
    <sodipodi:guide
       position="535.76048,512"
       orientation="0,1"
       id="guide817"
       inkscape:locked="false" />
    <sodipodi:guide
       position="0,383.23353"
       orientation="1,0"
       id="guide819"
       inkscape:locked="false" />
    <sodipodi:guide
       position="512,312.71856"
       orientation="1,0"
       id="guide821"
       inkscape:locked="false" />
    <sodipodi:guide
       position="169.38922,0"
       orientation="0,1"
       id="guide823"
       inkscape:locked="false" />
  </sodipodi:namedview>
  <g
     id="g5713-6-3"
     transform="matrix(5.2962088,0,0,5.2962088,-2032.1065,1272.7197)"
     style="display:inline;fill:#ffff00;stroke:#ffff00;stroke-width:0.01888143;stroke-miterlimit:4;stroke-dasharray:none;stroke-opacity:1"
     inkscape:export-xdpi="47.666004"
     inkscape:export-ydpi="47.666004">
    <path
       sodipodi:nodetypes="ccccccccccccccccccsccccs"
       inkscape:connector-curvature="0"
       id="a-0-1"
       d="m 416.22749,-216.53071 c -0.78941,0 0.26883,0 0.001,0 h -0.001 c -16.18235,0.0477 -29.95785,12.397 -32.03617,24.58971 0.31113,23.70366 17.55212,46.76126 46.55471,47.72709 23.6503,0.78806 49.21696,-18.93941 49.06092,-48.77937 l -0.0131,0.01 c -4.39404,27.91527 -31.66505,42.23588 -48.86309,42.17348 -22.89498,-0.0507 -40.53638,-18.0177 -40.53638,-41.18688 h -0.0187 c 4.08147,-12.12832 17.17714,-20.86391 30.35602,-18.52088 6.58053,1.60515 6.63215,6.49034 6.7681,11.87683 -3.92497,0.0755 -7.97632,-0.40303 -11.59877,-0.0815 -10.22309,1.57335 -16.98271,5.0244 -17.16461,15.6533 0.25847,8.20587 6.34407,14.43418 13.74597,14.53693 8.33337,-0.0437 14.15397,-3.70454 18.94723,-9.31559 l 1.72315,-30.74816 c -4.28734,-6.36107 -8.90185,-7.90858 -16.92528,-7.93104 z m 4.65827,23.68846 c 2.09235,0 4.17079,0.0944 6.13537,0.0298 0.0489,3.6629 0.39079,7.30583 1.55189,10.55785 -5.49973,4.38419 -14.26958,9.3924 -20.25754,4.4302 -2.74365,-3.01534 -3.01766,-8.10025 -0.37356,-10.90255 3.67049,-3.65028 8.34067,-4.11481 12.94384,-4.1159 z"
       style="display:inline;fill:#ffff00;fill-opacity:1;stroke:#ffff00;stroke-width:0.01888143;stroke-miterlimit:4;stroke-dasharray:none;stroke-opacity:1" />
    <path
       sodipodi:nodetypes="cccccccccccccccccc"
       inkscape:connector-curvature="0"
       id="e-0-3"
       d="m 431.43896,-239.80771 c -21.84002,0.0109 -47.24476,17.75498 -47.24764,47.86671 6.2225,-28.2224 23.93623,-39.96876 46.64932,-41.55364 24.57505,0.815 42.23565,22.6976 43.09532,40.68469 -3.39653,12.33668 -13.63688,17.57919 -23.34111,18.06976 -9.37876,-0.35325 -15.66262,-6.22722 -15.28926,-18.32583 l 30.9173,0.16306 c 0.0345,-6.27054 -1.16674,-13.58869 -4.66762,-18.10533 -3.01935,-3.69112 -7.39816,-5.55819 -13.18318,-5.55819 -6.13635,0.26411 -11.13637,3.11052 -15.2212,7.68659 l -1.80767,30.94222 c 5.28051,5.46698 12.80232,8.44485 19.40008,8.48897 15.10919,0 26.48962,-11.02258 29.05041,-23.53872 -0.32643,-26.0942 -21.99432,-46.8336 -48.35475,-46.82029 z m 17.11114,29.03193 c 7.47848,0.35136 10.56302,5.26944 11.34035,11.86063 h -24.06022 c 1.12005,-7.00783 6.16805,-11.76077 12.71987,-11.86063 z"
       style="display:inline;fill:#ffff00;fill-opacity:1;stroke:#ffff00;stroke-width:0.01888143;stroke-miterlimit:4;stroke-dasharray:none;stroke-opacity:1" />
  </g>
</svg>
